HIERARCHY
ROOT Hips
{
 OFFSET 0.000000 0.000000 0.000000
 CHANNELS 6 Xposition Yposition Zposition Yrotation Xrotation Zrotation
 JOINT Chest
 {
  OFFSET 0.000000 11.395451 -0.039534
  CHANNELS 3 Yrotation Xrotation Zrotation
  JOINT Chest2
  {
   OFFSET 0.000000 9.398669 0.071813
   CHANNELS 3 Yrotation Xrotation Zrotation
   JOINT Chest3
   {
    OFFSET 0.000000 8.489801 0.000000
    CHANNELS 3 Yrotation Xrotation Zrotation
    JOINT Chest4
    {
     OFFSET 0.000000 8.489801 0.000000
     CHANNELS 3 Yrotation Xrotation Zrotation
     JOINT Neck
     {
      OFFSET 0.000000 12.404889 0.000000
      CHANNELS 3 Yrotation Xrotation Zrotation
      JOINT Head
      {
       OFFSET 0.000000 8.903270 0.092239
       CHANNELS 3 Yrotation Xrotation Zrotation
       End Site
       {
        OFFSET 0.000000 17.592497 0.007158
       }
      }
     }
     JOINT RightCollar
     {
      OFFSET -3.196775 6.966722 0.000000
      CHANNELS 3 Yrotation Xrotation Zrotation
      JOINT RightShoulder
      {
       OFFSET -15.955896 0.000000 0.000000
       CHANNELS 3 Yrotation Xrotation Zrotation
       JOINT RightElbow
       {
        OFFSET -24.792472 0.000000 0.000000
        CHANNELS 3 Yrotation Xrotation Zrotation
        JOINT RightWrist
        {
         OFFSET -20.900115 0.000000 0.025002
         CHANNELS 3 Yrotation Xrotation Zrotation
         End Site
         {
          OFFSET -16.056692 0.000000 0.000000
         }
        }
       }
      }
     }
     JOINT LeftCollar
     {
      OFFSET 3.196775 6.966722 0.000000
      CHANNELS 3 Yrotation Xrotation Zrotation
      JOINT LeftShoulder
      {
       OFFSET 15.955896 0.000000 0.000000
       CHANNELS 3 Yrotation Xrotation Zrotation
       JOINT LeftElbow
       {
        OFFSET 24.792472 0.000000 0.000000
        CHANNELS 3 Yrotation Xrotation Zrotation
        JOINT LeftWrist
        {
         OFFSET 20.900115 0.000000 0.025002
         CHANNELS 3 Yrotation Xrotation Zrotation
         End Site
         {
          OFFSET 16.056692 0.000000 0.000000
         }
        }
       }
      }
     }
    }
   }
  }
 }
 JOINT RightHip
 {
  OFFSET -9.568995 0.193718 0.019767
  CHANNELS 3 Yrotation Xrotation Zrotation
  JOINT RightKnee
  {
   OFFSET 0.000000 -56.649296 0.015402
   CHANNELS 3 Yrotation Xrotation Zrotation
   JOINT RightAnkle
   {
    OFFSET 0.000000 -41.365147 0.021264
    CHANNELS 3 Yrotation Xrotation Zrotation
    JOINT RightToe
    {
     OFFSET 0.000000 -7.465940 17.672538
     CHANNELS 3 Yrotation Xrotation Zrotation
     End Site
     {
      OFFSET 0.000000 -1.736315 7.837145
     }
    }
   }
  }
 }
 JOINT LeftHip
 {
  OFFSET 9.568995 0.193718 0.019767
  CHANNELS 3 Yrotation Xrotation Zrotation
  JOINT LeftKnee
  {
   OFFSET 0.000000 -56.649296 0.015402
   CHANNELS 3 Yrotation Xrotation Zrotation
   JOINT LeftAnkle
   {
    OFFSET 0.000000 -41.365147 0.021264
    CHANNELS 3 Yrotation Xrotation Zrotation
    JOINT LeftToe
    {
     OFFSET 0.000000 -7.465940 17.672538
     CHANNELS 3 Yrotation Xrotation Zrotation
     End Site
     {
      OFFSET 0.000000 -1.736315 7.837145
     }
    }
   }
  }
 }
}
MOTION
Frames: 11
Frame Time: 0.016667
151.373549 106.534441 321.707086 151.869417 -10.264221 -1.696883 -3.115108 4.419729 -0.394479 -1.379672 1.966938 -0.145498 -1.379672 1.966938 -0.145498 -1.034184 1.475541 -0.104671 -2.546806 17.008207 0.406983 -4.855955 -4.542323 1.640713 5.836694 2.521583 10.586765 1.791241 -2.249176 75.705378 5.308859 -0.784298 2.744101 -1.786343 -1.569659 1.426136 -3.034578 4.481803 -8.600666 -0.222381 -8.029330 -76.872226 -1.640197 3.971328 -1.917040 4.760440 -3.488376 -4.582830 1.443463 11.929338 2.030817 -1.020534 2.663054 -0.139164 1.089002 -4.776349 -1.207165 0.000000 0.000000 0.000000 1.725477 10.447330 -1.126169 0.395406 8.183441 0.516482 4.938366 -8.659289 0.948880 0.000000 0.000000 0.000000
151.351925 106.559267 321.706321 151.888254 -10.128095 -1.686888 -3.093816 4.385312 -0.373354 -1.370460 1.951485 -0.136551 -1.370460 1.951485 -0.136551 -1.027309 1.463929 -0.098026 -2.545408 16.994049 0.406089 -4.853509 -4.568694 1.639162 5.809844 2.447535 10.504216 1.759824 -2.194721 75.907140 5.262262 -0.709978 2.695372 -1.774313 -1.564525 1.326042 -3.016046 4.405824 -8.566110 -0.222290 -7.929971 -76.991944 -1.637613 4.015354 -1.895555 4.699150 -3.490517 -4.543945 1.463555 11.782893 1.997337 -1.124623 2.694346 -0.124163 1.163368 -4.773831 -1.201985 0.000000 -0.000000 0.000000 1.703073 10.335362 -1.235731 0.428274 8.071989 0.737754 4.922362 -8.524204 0.851001 -0.000247 -0.023789 0.317697
151.330301 106.584093 321.705557 151.907107 -9.991972 -1.676852 -3.072489 4.350880 -0.352304 -1.361230 1.936026 -0.127635 -1.361230 1.936026 -0.127635 -1.020421 1.452313 -0.091404 -2.544008 16.979893 0.405174 -4.851058 -4.595062 1.637571 5.783073 2.373535 10.421635 1.728613 -2.140315 76.108910 5.215379 -0.635866 2.646544 -1.762458 -1.559517 1.225927 -2.997488 4.329799 -8.531698 -0.222479 -7.830443 -77.111482 -1.634997 4.059346 -1.873996 4.637845 -3.492643 -4.505082 1.483663 11.636479 1.963698 -1.228696 2.725699 -0.109211 1.237738 -4.771324 -1.196832 0.000000 -0.000000 0.000000 1.680668 10.223394 -1.345247 0.460609 7.960396 0.958893 4.906020 -8.389169 0.753123 -0.000412 -0.047521 0.635398
151.309733 106.608799 321.704609 151.925747 -9.863685 -1.662431 -3.051135 4.319376 -0.336165 -1.351937 1.921902 -0.120877 -1.351937 1.921902 -0.120877 -1.013477 1.441702 -0.086397 -2.542661 16.965265 0.405946 -4.849308 -4.622229 1.639137 5.761460 2.301584 10.344951 1.700951 -2.088205 76.292400 5.171708 -0.561083 2.602117 -1.753698 -1.552048 1.134134 -2.976505 4.257635 -8.497370 -0.219156 -7.739318 -77.216682 -1.631886 4.104206 -1.855495 4.579867 -3.494882 -4.468567 1.498803 11.496553 1.928675 -1.319257 2.754930 -0.097543 1.301325 -4.762305 -1.193452 0.000000 -0.000000 0.000000 1.657011 10.117862 -1.450198 0.490943 7.863114 1.152884 4.888036 -8.275516 0.669394 -0.000509 -0.068172 0.855033
151.290492 106.634504 321.704046 151.943608 -9.745573 -1.640012 -3.029447 4.291593 -0.327696 -1.342416 1.909483 -0.117501 -1.342416 1.909483 -0.117501 -1.006351 1.432379 -0.083923 -2.541101 16.949705 0.409448 -4.848144 -4.651009 1.645722 5.748238 2.231415 10.276559 1.678587 -2.036705 76.450290 5.133242 -0.485340 2.563683 -1.749513 -1.541404 1.054559 -2.949765 4.189997 -8.463771 -0.211071 -7.659792 -77.298585 -1.630307 4.153664 -1.843929 4.526171 -3.496666 -4.436234 1.504656 11.363475 1.890633 -1.388013 2.781912 -0.091735 1.348866 -4.742369 -1.193074 0.000000 -0.000000 0.000000 1.631527 10.019836 -1.550424 0.519507 7.789737 1.306868 4.866807 -8.198088 0.606906 -0.000586 -0.082486 0.910779
151.272308 106.660090 321.703299 151.961286 -9.635302 -1.613224 -3.007756 4.266756 -0.324124 -1.332844 1.898407 -0.116278 -1.332844 1.898407 -0.116278 -0.999180 1.424067 -0.083059 -2.539594 16.933665 0.414635 -4.847685 -4.680604 1.655465 5.740134 2.163312 10.214029 1.659723 -1.987557 76.589929 5.098062 -0.408822 2.529685 -1.748436 -1.528271 0.983312 -2.920621 4.126211 -8.430258 -0.199325 -7.588705 -77.366176 -1.628258 4.204015 -1.835424 4.475796 -3.498581 -4.406264 1.505598 11.236871 1.851317 -1.443271 2.806720 -0.089187 1.385620 -4.715915 -1.194442 0.000000 -0.000000 0.000000 1.604827 9.928232 -1.646074 0.546443 7.730741 1.433786 4.844211 -8.142026 0.558548 -0.000673 -0.093783 0.868457
151.255416 106.682076 321.700478 151.980296 -9.533691 -1.588584 -2.987044 4.245455 -0.321973 -1.323689 1.888912 -0.115652 -1.323689 1.888912 -0.115652 -0.992320 1.416943 -0.082639 -2.538990 16.918034 0.420083 -4.848978 -4.709394 1.665989 5.732455 2.100095 10.156061 1.642326 -1.948135 76.715023 5.063830 -0.331329 2.499906 -1.748961 -1.512147 0.917057 -2.896710 4.068178 -8.394810 -0.183620 -7.525097 -77.432237 -1.619238 4.244989 -1.821476 4.429196 -3.502504 -4.375516 1.509658 11.122099 1.814553 -1.496443 2.827465 -0.085354 1.416586 -4.689622 -1.195571 0.000000 -0.000000 0.000000 1.577426 9.846261 -1.733090 0.570235 7.671927 1.545341 4.824218 -8.084095 0.517160 -0.000786 -0.108901 0.827461
151.239650 106.698526 321.694706 152.001881 -9.442949 -1.568582 -2.967641 4.230100 -0.320309 -1.315105 1.882064 -0.115189 -1.315105 1.882064 -0.115189 -0.985885 1.411804 -0.082334 -2.539437 16.901619 0.425860 -4.852360 -4.739585 1.677523 5.723148 2.043292 10.103280 1.625671 -1.923585 76.823388 5.030969 -0.250517 2.476621 -1.750543 -1.491758 0.854898 -2.882456 4.017149 -8.355240 -0.161723 -7.470932 -77.503267 -1.602832 4.270640 -1.796757 4.384834 -3.512081 -4.339926 1.522923 11.023424 1.781978 -1.553726 2.842224 -0.077620 1.441916 -4.664628 -1.195923 0.000000 -0.000000 0.000000 1.545625 9.777072 -1.810014 0.591631 7.607852 1.643840 4.810229 -8.014713 0.480432 -0.000943 -0.131469 0.821784
151.225177 106.711377 321.686859 152.024771 -9.360866 -1.550724 -2.949226 4.218279 -0.320040 -1.306942 1.876796 -0.115314 -1.306942 1.876796 -0.115314 -0.979765 1.407851 -0.082463 -2.540789 16.885613 0.431903 -4.857501 -4.768970 1.689851 5.714231 1.991355 10.055086 1.610389 -1.908716 76.917185 4.999144 -0.168673 2.457572 -1.753703 -1.468345 0.797732 -2.873431 3.971869 -8.313661 -0.135839 -7.424243 -77.572828 -1.579490 4.286873 -1.766605 4.344218 -3.523693 -4.303578 1.539254 10.936590 1.751917 -1.608923 2.852924 -0.068578 1.461456 -4.639792 -1.196034 0.000000 -0.000000 0.000000 1.513097 9.717515 -1.878310 0.609930 7.544002 1.726991 4.798850 -7.943441 0.450685 -0.001126 -0.157849 0.817433
151.212735 106.722963 321.677679 152.046690 -9.281631 -1.534053 -2.931795 4.203339 -0.320462 -1.299213 1.870147 -0.115755 -1.299213 1.870147 -0.115755 -0.973969 1.402864 -0.082832 -2.543455 16.874490 0.436602 -4.864449 -4.789300 1.699948 5.707133 1.942479 10.008360 1.596475 -1.895393 77.006627 4.964851 -0.092576 2.435751 -1.758526 -1.445175 0.744911 -2.863990 3.930480 -8.274490 -0.112350 -7.378176 -77.634283 -1.543988 4.301192 -1.738486 4.312399 -3.528318 -4.275528 1.548324 10.854168 1.723227 -1.654853 2.863459 -0.061505 1.479741 -4.618385 -1.195528 0.000000 0.000000 0.000000 1.491399 9.661379 -1.938346 0.621358 7.482561 1.799572 4.783804 -7.875766 0.427708 -0.001303 -0.183947 0.811835
151.203264 106.733952 321.667445 152.065286 -9.203112 -1.518715 -2.914766 4.181731 -0.321324 -1.291666 1.860538 -0.116429 -1.291666 1.860538 -0.116429 -0.968310 1.395657 -0.083381 -2.547763 16.871464 0.439849 -4.873666 -4.794605 1.707591 5.703352 1.895889 9.961862 1.582813 -1.879371 77.096007 4.923173 -0.022099 2.405978 -1.765829 -1.421509 0.697189 -2.851413 3.892992 -8.239200 -0.095694 -7.329626 -77.682292 -1.490371 4.314877 -1.716847 4.294775 -3.519145 -4.263572 1.543766 10.772731 1.696367 -1.684922 2.877059 -0.058780 1.498457 -4.602859 -1.194344 0.000000 0.000000 0.000000 1.489224 9.606963 -1.988238 0.623718 7.423751 1.862304 4.760697 -7.813545 0.412339 -0.001462 -0.208459 0.803567
